<svg version="1.1" id="Layer_1" xmlns="http://www.w3.org/2000/svg" xmlns:xlink="http://www.w3.org/1999/xlink" x="0px" y="0px"
	 width="100%" viewBox="0 0 1000 623" enable-background="new 0 0 1000 623" xml:space="preserve">
<path fill="#000000" opacity="1.000000" stroke="none" 
	d="
M625.000000,624.000000 
	C416.666718,624.000000 208.833450,624.000000 1.000139,624.000000 
	C1.000093,416.333466 1.000093,208.666916 1.000046,1.000279 
	C334.333099,1.000186 667.666199,1.000186 1000.999512,1.000093 
	C1000.999634,208.666382 1000.999634,416.332764 1000.999817,623.999573 
	C875.833313,624.000000 750.666687,624.000000 625.000000,624.000000 
M690.500000,549.999878 
	C786.251892,549.999878 882.003784,549.999878 977.618652,549.999878 
	C977.618652,391.267609 977.618652,233.214310 977.618652,75.246811 
	C818.968384,75.246811 660.699707,75.246811 502.291382,75.246811 
	C502.291382,125.217384 502.291382,174.940918 502.291382,224.660828 
	C506.979858,224.660828 511.370667,224.660828 516.262451,224.660828 
	C516.262451,179.264648 516.262451,134.206055 516.262451,89.250961 
	C665.706848,89.250961 814.642456,89.250961 963.706604,89.250961 
	C963.706604,238.222382 963.706604,386.942474 963.706604,535.664429 
	C814.359558,535.664429 665.306091,535.664429 515.746521,535.664429 
	C515.746521,490.270630 515.746521,445.210693 515.746521,400.250854 
	C510.960388,400.250854 506.683655,400.250854 502.297882,400.250854 
	C502.297882,450.225555 502.297882,499.948669 502.297882,549.999878 
	C564.896790,549.999878 627.198425,549.999878 690.500000,549.999878 
M611.501831,240.999557 
	C606.670349,240.999878 601.827087,240.813248 597.014954,241.118454 
	C595.634155,241.206039 593.535034,242.449356 593.151428,243.617859 
	C591.486572,248.688110 590.335693,253.926971 588.995544,259.103943 
	C583.557068,280.112854 578.117676,301.121582 572.552246,322.618622 
	C565.647217,296.472137 558.749329,270.975220 552.332520,245.357773 
	C551.410095,241.675064 550.181763,240.922913 546.847107,240.943329 
	C527.854797,241.059540 508.861420,240.992889 489.868439,241.015411 
	C488.613373,241.016907 487.358582,241.242050 486.241302,241.349884 
	C486.241302,289.039062 486.241302,336.299896 486.241302,383.716309 
	C500.537537,383.716309 514.591309,383.716309 529.606628,383.716309 
	C528.886536,353.866608 528.173889,324.324951 527.522705,297.330872 
	C534.979187,324.385071 543.167419,354.094269 551.370667,383.857971 
	C563.547180,383.857971 575.512390,383.857971 587.695251,383.857971 
	C595.912537,353.798157 604.109070,323.814056 611.807068,295.653778 
	C611.028992,323.784149 610.203064,353.644409 609.370850,383.729065 
	C625.512146,383.729065 640.565491,383.729065 655.699219,383.729065 
	C655.699219,336.078735 655.699219,288.700378 655.699219,240.999557 
	C641.100952,240.999557 626.800964,240.999557 611.501831,240.999557 
M191.999832,349.500000 
	C191.999832,360.924286 191.999832,372.348541 191.999832,383.616364 
	C234.071503,383.616364 275.458954,383.616364 316.746094,383.616364 
	C316.746094,371.957947 316.746094,360.685089 316.746094,348.910461 
	C290.771973,348.910461 265.046265,348.910461 239.345734,348.910461 
	C239.345734,341.672638 239.345734,334.947601 239.345734,327.726196 
	C261.081207,327.726196 282.475037,327.726196 303.739471,327.726196 
	C303.739471,316.610596 303.739471,306.004089 303.739471,294.896240 
	C282.091400,294.896240 260.697662,294.896240 239.353134,294.896240 
	C239.353134,288.323181 239.353134,282.264038 239.353134,275.720276 
	C265.097198,275.720276 290.491333,275.720276 315.747131,275.720276 
	C315.747131,263.946289 315.747131,252.672394 315.747131,241.300201 
	C274.429932,241.300201 233.375931,241.300201 191.999832,241.300201 
	C191.999832,277.233215 191.999832,312.866608 191.999832,349.500000 
M798.488098,309.992279 
	C796.584839,308.442108 794.787354,306.735229 792.760437,305.368347 
	C782.814758,298.660919 771.114929,296.949829 759.856262,294.005310 
	C750.769653,291.628906 741.654114,289.363647 732.568237,286.984650 
	C728.894592,286.022766 726.158081,283.082153 726.380676,279.839966 
	C726.543335,277.471497 729.422668,274.262329 731.834961,273.307739 
	C735.803040,271.737488 740.361389,271.203430 744.692566,271.094818 
	C755.918152,270.813324 760.600769,274.843079 762.592834,285.665710 
	C777.009705,285.665710 791.415771,285.665710 806.381836,285.665710 
	C805.885010,282.035797 805.395874,278.816528 805.011169,275.584839 
	C803.820618,265.584717 798.721802,257.992767 790.855347,251.952286 
	C779.976685,243.598724 767.121094,240.395828 754.023560,239.220886 
	C737.592102,237.746841 721.076660,238.917084 705.568542,245.298859 
	C695.223083,249.556137 685.923645,255.881088 682.204041,267.054626 
	C680.086365,273.416138 679.382507,280.431305 679.132629,287.192444 
	C678.658081,300.036102 684.933777,309.758545 695.153564,316.988678 
	C705.903381,324.593811 718.706360,326.752686 731.080994,330.019928 
	C739.996338,332.373840 748.896362,334.796570 757.745056,337.387329 
	C761.297058,338.427307 762.762451,341.560333 761.813354,344.766388 
	C761.129944,347.074768 759.122070,350.080780 757.074890,350.703308 
	C749.042908,353.145630 740.683594,353.975739 732.422852,351.684723 
	C727.692017,350.372650 722.934875,348.559906 721.571960,342.996765 
	C720.963745,340.514130 720.942688,337.887634 720.654114,335.317932 
	C706.058350,335.317932 691.664429,335.317932 676.587463,335.317932 
	C677.083740,340.403870 677.089661,345.215881 678.097778,349.807831 
	C680.209412,359.425934 684.345276,367.875824 693.008057,373.601562 
	C705.985962,382.179443 720.672119,385.119629 735.679077,385.775391 
	C746.642944,386.254517 757.749207,385.119446 768.695923,383.864960 
	C778.909485,382.694580 788.086426,378.144897 795.852783,371.498383 
	C804.289001,364.278625 807.900574,354.660919 809.213013,343.563995 
	C810.731567,330.724304 808.726318,319.571777 798.488098,309.992279 
M469.000000,262.496216 
	C469.000000,255.403275 469.000000,248.310318 469.000000,241.383743 
	C422.259491,241.383743 376.206512,241.383743 330.253723,241.383743 
	C330.253723,253.708633 330.253723,265.647827 330.253723,278.090210 
	C345.894379,278.090210 361.290497,278.090210 377.178284,278.090210 
	C377.178284,313.651917 377.178284,348.708557 377.178284,383.613403 
	C392.743225,383.613403 407.800964,383.613403 423.177368,383.613403 
	C423.177368,348.290283 423.177368,313.353302 423.177368,277.911499 
	C438.559204,277.911499 453.621521,277.911499 469.000000,277.911499 
	C469.000000,272.771332 469.000000,268.132843 469.000000,262.496216 
z"/>
<path fill="#0080FF" opacity="1.000000" stroke="none" 
	d="
M690.000000,549.999878 
	C627.198425,549.999878 564.896790,549.999878 502.297882,549.999878 
	C502.297882,499.948669 502.297882,450.225555 502.297882,400.250854 
	C506.683655,400.250854 510.960388,400.250854 515.746521,400.250854 
	C515.746521,445.210693 515.746521,490.270630 515.746521,535.664429 
	C665.306091,535.664429 814.359558,535.664429 963.706604,535.664429 
	C963.706604,386.942474 963.706604,238.222382 963.706604,89.250961 
	C814.642456,89.250961 665.706848,89.250961 516.262451,89.250961 
	C516.262451,134.206055 516.262451,179.264648 516.262451,224.660828 
	C511.370667,224.660828 506.979858,224.660828 502.291382,224.660828 
	C502.291382,174.940918 502.291382,125.217384 502.291382,75.246811 
	C660.699707,75.246811 818.968384,75.246811 977.618652,75.246811 
	C977.618652,233.214310 977.618652,391.267609 977.618652,549.999878 
	C882.003784,549.999878 786.251892,549.999878 690.000000,549.999878 
z"/>
<path fill="#0080FF" opacity="1.000000" stroke="none" 
	d="
M612.001404,240.999557 
	C626.800964,240.999557 641.100952,240.999557 655.699219,240.999557 
	C655.699219,288.700378 655.699219,336.078735 655.699219,383.729065 
	C640.565491,383.729065 625.512146,383.729065 609.370850,383.729065 
	C610.203064,353.644409 611.028992,323.784149 611.807068,295.653778 
	C604.109070,323.814056 595.912537,353.798157 587.695251,383.857971 
	C575.512390,383.857971 563.547180,383.857971 551.370667,383.857971 
	C543.167419,354.094269 534.979187,324.385071 527.522705,297.330872 
	C528.173889,324.324951 528.886536,353.866608 529.606628,383.716309 
	C514.591309,383.716309 500.537537,383.716309 486.241302,383.716309 
	C486.241302,336.299896 486.241302,289.039062 486.241302,241.349884 
	C487.358582,241.242050 488.613373,241.016907 489.868439,241.015411 
	C508.861420,240.992889 527.854797,241.059540 546.847107,240.943329 
	C550.181763,240.922913 551.410095,241.675064 552.332520,245.357773 
	C558.749329,270.975220 565.647217,296.472137 572.552246,322.618622 
	C578.117676,301.121582 583.557068,280.112854 588.995544,259.103943 
	C590.335693,253.926971 591.486572,248.688110 593.151428,243.617859 
	C593.535034,242.449356 595.634155,241.206039 597.014954,241.118454 
	C601.827087,240.813248 606.670349,240.999878 612.001404,240.999557 
z"/>
<path fill="#0080FF" opacity="1.000000" stroke="none" 
	d="
M191.999832,349.000000 
	C191.999832,312.866608 191.999832,277.233215 191.999832,241.300201 
	C233.375931,241.300201 274.429932,241.300201 315.747131,241.300201 
	C315.747131,252.672394 315.747131,263.946289 315.747131,275.720276 
	C290.491333,275.720276 265.097198,275.720276 239.353134,275.720276 
	C239.353134,282.264038 239.353134,288.323181 239.353134,294.896240 
	C260.697662,294.896240 282.091400,294.896240 303.739471,294.896240 
	C303.739471,306.004089 303.739471,316.610596 303.739471,327.726196 
	C282.475037,327.726196 261.081207,327.726196 239.345734,327.726196 
	C239.345734,334.947601 239.345734,341.672638 239.345734,348.910461 
	C265.046265,348.910461 290.771973,348.910461 316.746094,348.910461 
	C316.746094,360.685089 316.746094,371.957947 316.746094,383.616364 
	C275.458954,383.616364 234.071503,383.616364 191.999832,383.616364 
	C191.999832,372.348541 191.999832,360.924286 191.999832,349.000000 
z"/>
<path fill="#0080FF" opacity="1.000000" stroke="none" 
	d="
M798.741821,310.243286 
	C808.726318,319.571777 810.731567,330.724304 809.213013,343.563995 
	C807.900574,354.660919 804.289001,364.278625 795.852783,371.498383 
	C788.086426,378.144897 778.909485,382.694580 768.695923,383.864960 
	C757.749207,385.119446 746.642944,386.254517 735.679077,385.775391 
	C720.672119,385.119629 705.985962,382.179443 693.008057,373.601562 
	C684.345276,367.875824 680.209412,359.425934 678.097778,349.807831 
	C677.089661,345.215881 677.083740,340.403870 676.587463,335.317932 
	C691.664429,335.317932 706.058350,335.317932 720.654114,335.317932 
	C720.942688,337.887634 720.963745,340.514130 721.571960,342.996765 
	C722.934875,348.559906 727.692017,350.372650 732.422852,351.684723 
	C740.683594,353.975739 749.042908,353.145630 757.074890,350.703308 
	C759.122070,350.080780 761.129944,347.074768 761.813354,344.766388 
	C762.762451,341.560333 761.297058,338.427307 757.745056,337.387329 
	C748.896362,334.796570 739.996338,332.373840 731.080994,330.019928 
	C718.706360,326.752686 705.903381,324.593811 695.153564,316.988678 
	C684.933777,309.758545 678.658081,300.036102 679.132629,287.192444 
	C679.382507,280.431305 680.086365,273.416138 682.204041,267.054626 
	C685.923645,255.881088 695.223083,249.556137 705.568542,245.298859 
	C721.076660,238.917084 737.592102,237.746841 754.023560,239.220886 
	C767.121094,240.395828 779.976685,243.598724 790.855347,251.952286 
	C798.721802,257.992767 803.820618,265.584717 805.011169,275.584839 
	C805.395874,278.816528 805.885010,282.035797 806.381836,285.665710 
	C791.415771,285.665710 777.009705,285.665710 762.592834,285.665710 
	C760.600769,274.843079 755.918152,270.813324 744.692566,271.094818 
	C740.361389,271.203430 735.803040,271.737488 731.834961,273.307739 
	C729.422668,274.262329 726.543335,277.471497 726.380676,279.839966 
	C726.158081,283.082153 728.894592,286.022766 732.568237,286.984650 
	C741.654114,289.363647 750.769653,291.628906 759.856262,294.005310 
	C771.114929,296.949829 782.814758,298.660919 792.760437,305.368347 
	C794.787354,306.735229 796.584839,308.442108 798.741821,310.243286 
z"/>
<path fill="#0080FF" opacity="1.000000" stroke="none" 
	d="
M469.000000,262.995300 
	C469.000000,268.132843 469.000000,272.771332 469.000000,277.911499 
	C453.621521,277.911499 438.559204,277.911499 423.177368,277.911499 
	C423.177368,313.353302 423.177368,348.290283 423.177368,383.613403 
	C407.800964,383.613403 392.743225,383.613403 377.178284,383.613403 
	C377.178284,348.708557 377.178284,313.651917 377.178284,278.090210 
	C361.290497,278.090210 345.894379,278.090210 330.253723,278.090210 
	C330.253723,265.647827 330.253723,253.708633 330.253723,241.383743 
	C376.206512,241.383743 422.259491,241.383743 469.000000,241.383743 
	C469.000000,248.310318 469.000000,255.403275 469.000000,262.995300 
z"/>
</svg>